<svg xmlns="http://www.w3.org/2000/svg" viewBox="0 0 61.5 61.21"><title>folder editing</title><g id="Layer_2" data-name="Layer 2"><g id="Layer_1-2" data-name="Layer 1"><g id="folder_editing" data-name="folder editing"><path d="M58.59,28.4l.41.41v-7.6a10.51,10.51,0,0,0-10.5-10.5H32.87l-9-9.89A2.52,2.52,0,0,0,22.06,0H2.5A2.5,2.5,0,0,0,0,2.5V48.21a10.51,10.51,0,0,0,10.5,10.5h16a7.83,7.83,0,0,1,.23-1.86l2-7.68a7.47,7.47,0,0,1,2-3.44L48,28.4A7.51,7.51,0,0,1,58.59,28.4ZM5,10.71V5H21l5.17,5.71Z"/><path d="M60.77,37.65l-5.71-5.71a2.5,2.5,0,0,0-3.54,0L34.2,49.27a2.44,2.44,0,0,0-.66,1.14l-2,7.68A2.49,2.49,0,0,0,34,61.21a2.57,2.57,0,0,0,.62-.08l7.67-2a2.51,2.51,0,0,0,1.15-.66L60.77,41.19A2.52,2.52,0,0,0,60.77,37.65Z"/></g></g></g></svg>